<?xml version="1.0"?><svg id="Capa_2" data-name="Capa 2" xmlns="http://www.w3.org/2000/svg" viewBox="0 0 306.16 352.67">
  <g id="Capa_1-2" data-name="Capa 1">
    <path d="M20.41,79.05v114.26c0,39.53,12.57,69.04,37.2,96.31,24.83,27.49,58.73,42.64,95.47,42.64s70.64-15.15,95.47-42.64c24.62-27.28,37.19-56.78,37.19-96.31v-114.26l-20.4-9.43v123.69c0,32.77-12.87,60.02-32.82,82.6-20.48,23.18-48.69,35.94-79.44,35.94s-58.96-12.76-79.44-35.94c-19.95-22.58-32.81-49.83-32.81-82.6v-101.22l61.24-28.27v129.49c0,34.33,21.54,57.31,51.02,57.31s51.03-22.98,51.03-57.31V41.34l-20.41-9.43v161.4c0,22.41-12.63,36.9-30.61,36.9s-30.62-14.49-30.62-36.9V31.91L20.41,79.05ZM153.08,352.67C67.24,352.67,0,286.76,0,193.31v-127.31L142.89,0v193.31c0,16.49,7.66,16.49,10.19,16.49s10.18,0,10.18-16.49V0l61.25,28.28v165.03c0,45.41-31.36,77.72-71.43,77.72s-71.44-32.31-71.44-77.72v-97.59l-20.41,9.43v88.16c0,57.79,39.99,98.13,91.85,98.13s91.85-40.35,91.85-98.13V37.71l61.23,28.29v127.31c0,93.45-67.24,159.36-153.08,159.36"></path>
  </g>
</svg>